<?xml version="1.0" encoding="UTF-8" standalone="no"?>
<svg
   xmlns:dc="http://purl.org/dc/elements/1.1/"
   xmlns:cc="http://creativecommons.org/ns#"
   xmlns:rdf="http://www.w3.org/1999/02/22-rdf-syntax-ns#"
   xmlns:svg="http://www.w3.org/2000/svg"
   xmlns="http://www.w3.org/2000/svg"
   xmlns:sodipodi="http://sodipodi.sourceforge.net/DTD/sodipodi-0.dtd"
   xmlns:inkscape="http://www.inkscape.org/namespaces/inkscape"
   viewBox="0 0 24 24"
   width="24"
   height="24"
   version="1.1"
   id="svg1642"
   sodipodi:docname="flat-roof.svg"
   inkscape:version="0.92.3 (2405546, 2018-03-11)">
  <metadata
     id="metadata1648">
    <rdf:RDF>
      <cc:Work
         rdf:about="">
        <dc:format>image/svg+xml</dc:format>
        <dc:type
           rdf:resource="http://purl.org/dc/dcmitype/StillImage" />
        <dc:title></dc:title>
      </cc:Work>
    </rdf:RDF>
  </metadata>
  <defs
     id="defs1646" />
  <sodipodi:namedview
     pagecolor="#ffffff"
     bordercolor="#666666"
     borderopacity="1"
     objecttolerance="10"
     gridtolerance="10"
     guidetolerance="10"
     inkscape:pageopacity="0"
     inkscape:pageshadow="2"
     inkscape:window-width="1918"
     inkscape:window-height="1042"
     id="namedview1644"
     showgrid="false"
     inkscape:measure-start="2,3"
     inkscape:measure-end="22,3"
     inkscape:zoom="32.726562"
     inkscape:cx="6.2095966"
     inkscape:cy="12"
     inkscape:window-x="1920"
     inkscape:window-y="37"
     inkscape:window-maximized="0"
     inkscape:current-layer="svg1642" />
  <path
     fill="none"
     d="M0 0h24v24H0z"
     id="path1638" />
  <path
     d="M17 19h2v-8h-6v8h2v-6h2v6zM3 19V4a1 1 0 0 1 1-1h14a1 1 0 0 1 1 1v5h2v10h1v2H2v-2h1zm4-8v2h2v-2H7zm0 4v2h2v-2H7zm0-8v2h2V7H7z"
     id="path1640"
     style="fill:#7c7c7f;fill-opacity:0.94117647" />
</svg>
