<?xml version="1.0" encoding="UTF-8" standalone="no"?>
<svg
   xmlns:dc="http://purl.org/dc/elements/1.1/"
   xmlns:cc="http://creativecommons.org/ns#"
   xmlns:rdf="http://www.w3.org/1999/02/22-rdf-syntax-ns#"
   xmlns:svg="http://www.w3.org/2000/svg"
   xmlns="http://www.w3.org/2000/svg"
   xmlns:sodipodi="http://sodipodi.sourceforge.net/DTD/sodipodi-0.dtd"
   xmlns:inkscape="http://www.inkscape.org/namespaces/inkscape"
   width="24"
   height="24"
   viewBox="0 0 24 24"
   version="1.1"
   id="svg4628"
   sodipodi:docname="roof-maintenance.svg"
   inkscape:version="0.92.3 (2405546, 2018-03-11)">
  <metadata
     id="metadata4634">
    <rdf:RDF>
      <cc:Work
         rdf:about="">
        <dc:format>image/svg+xml</dc:format>
        <dc:type
           rdf:resource="http://purl.org/dc/dcmitype/StillImage" />
        <dc:title />
      </cc:Work>
    </rdf:RDF>
  </metadata>
  <defs
     id="defs4632" />
  <sodipodi:namedview
     pagecolor="#ffffff"
     bordercolor="#666666"
     borderopacity="1"
     objecttolerance="10"
     gridtolerance="10"
     guidetolerance="10"
     inkscape:pageopacity="0"
     inkscape:pageshadow="2"
     inkscape:window-width="1918"
     inkscape:window-height="1059"
     id="namedview4630"
     showgrid="false"
     inkscape:zoom="32.726562"
     inkscape:cx="6.2095966"
     inkscape:cy="12"
     inkscape:window-x="1920"
     inkscape:window-y="19"
     inkscape:window-maximized="0"
     inkscape:current-layer="svg4628" />
  <path
     fill="none"
     stroke="#000"
     stroke-width="2"
     d="M3,6 L21,6 L3,6 Z M10,2 L10,4 M14,2 L14,4 M16,12 C18.3736719,13.1826446 20,15.6506255 20,19 L20,23 L4,23 L4,19 C4,15.6457258 5.6310898,13.1754259 8,12 M12,16.5 L12,23 M12,13 C15.3137085,13 18,10.3137085 18,7 C18,3.6862915 15.3137085,1 12,1 C8.6862915,1 6,3.6862915 6,7 C6,10.3137085 8.6862915,13 12,13 Z M8,12 C8,14.209139 9.790861,16 12,16 L12,16 C14.209139,16 16,14.209139 16,12"
     id="path4626"
     style="fill:none;fill-opacity:1;stroke:#1e1e1e;stroke-opacity:1" />
</svg>
