<?xml version="1.0" encoding="UTF-8" standalone="no"?>
<!-- Created with Inkscape (http://www.inkscape.org/) -->

<svg
   xmlns:dc="http://purl.org/dc/elements/1.1/"
   xmlns:cc="http://creativecommons.org/ns#"
   xmlns:rdf="http://www.w3.org/1999/02/22-rdf-syntax-ns#"
   xmlns:svg="http://www.w3.org/2000/svg"
   xmlns="http://www.w3.org/2000/svg"
   xmlns:sodipodi="http://sodipodi.sourceforge.net/DTD/sodipodi-0.dtd"
   xmlns:inkscape="http://www.inkscape.org/namespaces/inkscape"
   version="1.1"
   id="svg2921"
   width="24"
   height="24"
   viewBox="0 0 24 24"
   sodipodi:docname="tiling-roof.svg"
   inkscape:version="0.92.3 (2405546, 2018-03-11)">
  <metadata
     id="metadata2927">
    <rdf:RDF>
      <cc:Work
         rdf:about="">
        <dc:format>image/svg+xml</dc:format>
        <dc:type
           rdf:resource="http://purl.org/dc/dcmitype/StillImage" />
        <dc:title />
      </cc:Work>
    </rdf:RDF>
  </metadata>
  <defs
     id="defs2925" />
  <sodipodi:namedview
     pagecolor="#ffffff"
     bordercolor="#666666"
     borderopacity="1"
     objecttolerance="10"
     gridtolerance="10"
     guidetolerance="10"
     inkscape:pageopacity="0"
     inkscape:pageshadow="2"
     inkscape:window-width="1918"
     inkscape:window-height="1059"
     id="namedview2923"
     showgrid="false"
     inkscape:measure-start="0.733349,7.74091"
     inkscape:measure-end="20.8597,7.49646"
     showguides="true"
     inkscape:guide-bbox="true"
     inkscape:zoom="24.544922"
     inkscape:cx="9.2861713"
     inkscape:cy="7.8170364"
     inkscape:window-x="1920"
     inkscape:window-y="19"
     inkscape:window-maximized="0"
     inkscape:current-layer="layer1"
     inkscape:snap-page="true" />
  <g
     inkscape:groupmode="layer"
     id="layer1"
     inkscape:label="main"
     style="display:inline">
    <g
       id="g3867"
       transform="matrix(0.96563611,0,0,1.1686811,0.35787357,-1.8403805)">
      <path
         inkscape:connector-curvature="0"
         id="path3494"
         d="m 4.667006,9.0194868 1.6709034,-0.6049823 1.9301816,0.6337909 1.901373,-0.5761735 1.814947,0.5761735 1.95899,-0.6049822 1.901373,0.6049822 1.930181,-0.6049822 1.555669,0.4321302 v 0.028809 0 0"
         style="fill:none;stroke:#7c7c7c;stroke-width:1.79999995;stroke-linecap:round;stroke-linejoin:round;stroke-miterlimit:4;stroke-dasharray:none;stroke-opacity:1;paint-order:stroke markers fill" />
      <path
         inkscape:connector-curvature="0"
         id="path3496"
         d="m 3.6298936,12.793424 1.9589902,-0.6626 2.1030336,0.720217 2.247077,-0.749026 2.1030336,0.749026 2.160651,-0.720217 2.160651,0.749026 2.160651,-0.749026 1.843755,0.691408 h -0.02881"
         style="fill:none;stroke:#7c7c7c;stroke-width:1.79999995;stroke-linecap:round;stroke-linejoin:round;stroke-miterlimit:4;stroke-dasharray:none;stroke-opacity:1" />
      <path
         inkscape:connector-curvature="0"
         id="path3510"
         d="M 5.3296057,5.3319758 2.4487377,16.970682 v 1.382817 l 2.2758857,-0.835452 2.5063551,0.835452 2.4199291,-0.835452 2.4199294,0.777834 2.448737,-0.806643 2.419929,0.835452 2.362312,-0.835452 2.362312,0.864261 V 16.884256 L 18.840876,5.3607845 Z"
         style="fill:none;stroke:#7c7c7c;stroke-width:1.79999995;stroke-linecap:round;stroke-linejoin:round;stroke-miterlimit:4;stroke-dasharray:none;stroke-opacity:1"
         sodipodi:nodetypes="cccccccccccccc" />
      <path
         inkscape:connector-curvature="0"
         id="path3512"
         d="m 2.6468806,16.97238 2.223883,-0.724043 2.4804849,0.753005 2.4234622,-0.724043 2.3664393,0.781967 2.508997,-0.810929 2.223882,0.753005 2.451974,-0.781967 2.024303,0.81093 -0.02851,0.05792"
         style="fill:none;stroke:#7c7c7c;stroke-width:1.7954371;stroke-linecap:round;stroke-linejoin:round;stroke-miterlimit:4;stroke-dasharray:none;stroke-opacity:1"
         sodipodi:nodetypes="cccccccccc" />
      <path
         inkscape:connector-curvature="0"
         id="path3516"
         d="M 8.6714125,5.3895932 7.2021698,16.999491"
         style="fill:none;stroke:#7c7c7c;stroke-width:1.79999995;stroke-linecap:butt;stroke-linejoin:miter;stroke-miterlimit:4;stroke-dasharray:none;stroke-opacity:1" />
      <path
         inkscape:connector-curvature="0"
         id="path3518"
         d="m 11.955602,5.3319758 0.08643,11.7251322 v 0"
         style="fill:none;stroke:#7c7c7c;stroke-width:1.79999995;stroke-linecap:butt;stroke-linejoin:miter;stroke-miterlimit:4;stroke-dasharray:none;stroke-opacity:1" />
      <path
         inkscape:connector-curvature="0"
         id="path3520"
         d="m 15.441452,5.4184018 1.382817,11.5810892 v 0"
         style="fill:none;stroke:#7c7c7c;stroke-width:1.79999995;stroke-linecap:butt;stroke-linejoin:miter;stroke-miterlimit:4;stroke-dasharray:none;stroke-opacity:1" />
    </g>
    <path
       style="fill:#1e1e1e;stroke:none;stroke-width:0.04074163;fill-opacity:1"
       d="M 2.4089851,20.564365 C 2.2117056,20.460545 2.0750397,20.310679 1.9739692,20.087332 1.8827512,19.885758 1.879344,19.840086 1.879344,18.818947 V 17.759664 L 3.2767354,10.955813 C 4.0453007,7.2136949 4.6950262,4.0813433 4.7205696,3.9950318 4.7832599,3.7832015 5.0829437,3.4569954 5.2724133,3.3943494 c 0.1186785,-0.03924 1.5912639,-0.044135 6.8050657,-0.022622 6.562663,0.027078 6.655814,0.028576 6.814583,0.1095739 0.174178,0.088859 0.375031,0.3348916 0.442035,0.5414669 0.02305,0.071057 0.660568,3.1725931 1.416712,6.8923038 l 1.374806,6.763109 0.0012,1.079653 c 8.44e-4,0.785306 -0.0133,1.120429 -0.05187,1.229218 -0.08331,0.234991 -0.276699,0.471816 -0.462809,0.566763 -0.289147,0.147511 -0.459953,0.105187 -1.561988,-0.387042 -0.53779,-0.240207 -1.005986,-0.439088 -1.040437,-0.441957 -0.03445,-0.0029 -0.522026,0.190894 -1.0835,0.430587 -0.806516,0.344301 -1.060492,0.435804 -1.209614,0.435804 -0.148226,0 -0.419444,-0.09657 -1.263188,-0.449763 l -1.074435,-0.449764 -1.095979,0.435609 c -0.837941,0.333049 -1.139145,0.435191 -1.279317,0.433833 -0.133099,-0.0013 -0.471013,-0.114633 -1.233159,-0.413632 -0.577401,-0.226521 -1.0651827,-0.411857 -1.0839581,-0.411857 -0.018776,0 -0.5152789,0.201671 -1.1033406,0.448158 -0.7743744,0.32458 -1.1158345,0.448302 -1.238314,0.448681 -0.1217588,3.67e-4 -0.4828314,-0.126205 -1.2895058,-0.452063 L 4.9349658,19.727824 3.9136866,20.179886 c -1.0910534,0.482948 -1.2435474,0.521913 -1.5047015,0.384479 z m 11.2515899,-4.166 c 0.407138,-0.158805 0.789617,-0.288736 0.849952,-0.288736 0.06034,0 0.319236,0.08481 0.575334,0.18846 0.256098,0.103653 0.474414,0.179679 0.485148,0.168945 0.01963,-0.01963 -0.21306,-2.476053 -0.236802,-2.499794 -0.007,-0.007 -0.295156,-0.131171 -0.640367,-0.275954 l -0.627655,-0.263243 -0.165691,0.06762 c -0.09113,0.03719 -0.37175,0.150119 -0.623599,0.250954 l -0.457907,0.183338 -2.45e-4,1.399759 c -2.04e-4,1.104025 0.0105,1.395284 0.05067,1.378575 0.02801,-0.01165 0.38404,-0.151116 0.791178,-0.309921 z m 4.576531,-0.06535 c 0.768622,-0.304477 0.832906,-0.305682 1.407332,-0.0264 0.240566,0.116962 0.445799,0.204251 0.456074,0.193976 0.02152,-0.02152 -0.424168,-2.243852 -0.474794,-2.367458 -0.02254,-0.05503 -0.248115,-0.178995 -0.685773,-0.37686 -0.358701,-0.162169 -0.677332,-0.295007 -0.708068,-0.295197 -0.03073,-2.03e-4 -0.309302,0.10523 -0.619037,0.234265 l -0.563154,0.234609 0.02238,0.162966 c 0.01231,0.08963 0.0694,0.667144 0.126882,1.283361 0.05748,0.616218 0.113039,1.160786 0.123471,1.210152 0.02229,0.105481 -0.02294,0.118012 0.91469,-0.253415 z M 6.7453814,15.274425 C 6.8140869,14.602189 6.870127,14.015509 6.8699147,13.970693 6.8695888,13.904696 6.7681303,13.847271 6.3359749,13.668526 6.0425204,13.54715 5.780726,13.447843 5.7542099,13.447843 c -0.039318,0 -1.2799341,0.492177 -1.3200073,0.523673 -0.01544,0.01214 -0.5318974,2.522341 -0.5213833,2.534148 0.0044,0.0049 0.2361874,-0.08173 0.5150761,-0.192619 0.2788887,-0.110884 0.5620716,-0.201345 0.6292953,-0.201023 0.067224,3.26e-4 0.4338983,0.115486 0.8148325,0.255921 0.586681,0.216285 0.6968769,0.245654 0.7205233,0.192033 0.015354,-0.03482 0.084129,-0.613314 0.1528349,-1.285551 z M 9.164571,16.33735 c 0.2871649,-0.102839 0.5760935,-0.18698 0.642064,-0.18698 0.06597,0 0.37121,0.100836 0.678311,0.224079 0.307101,0.123244 0.573015,0.224079 0.59092,0.224079 0.01791,0 0.02772,-0.609376 0.02182,-1.354169 l -0.01074,-1.354168 -0.529641,-0.232438 c -0.291303,-0.12784 -0.5663086,-0.23281 -0.6111244,-0.233266 -0.044816,-4.57e-4 -0.365656,0.115006 -0.7129784,0.256584 L 8.601712,13.938484 8.4718253,15.136096 c -0.071438,0.658686 -0.1310226,1.26555 -0.1324103,1.348585 l -0.00252,0.150974 0.1527811,-0.05566 c 0.08403,-0.03062 0.387734,-0.139804 0.6748984,-0.242642 z m 8.510681,-4.855114 c 0.239974,-0.09907 0.496646,-0.179759 0.570383,-0.17932 0.07374,4.4e-4 0.299071,0.07208 0.500742,0.159201 0.201671,0.08712 0.369605,0.155513 0.373187,0.151982 0.02485,-0.02449 -0.410439,-2.0540772 -0.449168,-2.0943063 -0.0269,-0.027943 -0.291721,-0.1322445 -0.58849,-0.2317811 L 17.542327,9.1070352 17.10544,9.2705627 c -0.240287,0.08994 -0.448923,0.1759081 -0.463636,0.19104 -0.01471,0.015131 0.02597,0.5408563 0.09041,1.1682773 0.06444,0.627421 0.117725,1.153864 0.118418,1.169874 6.93e-4,0.01601 0.08834,-0.0084 0.194782,-0.05415 0.106437,-0.04579 0.389864,-0.164308 0.629838,-0.263373 z M 7.1160165,11.719719 c 7.578e-4,-0.03921 0.05397,-0.566309 0.1182534,-1.171322 C 7.2985533,9.9433838 7.3440751,9.4410395 7.3354293,9.4320768 7.3117747,9.4075544 6.5291497,9.1024135 6.4894372,9.1022289 6.4704887,9.1021475 6.1998784,9.2142122 5.8880807,9.351276 5.4531015,9.5424895 5.3165245,9.6207085 5.3011887,9.6873944 5.223122,10.02686 4.9157249,11.560985 4.9242935,11.568363 c 0.00587,0.0051 0.166509,-0.05208 0.3569761,-0.126956 0.1904671,-0.07488 0.4104719,-0.136266 0.4888995,-0.136412 0.08317,-1.63e-4 0.3802994,0.100243 0.7129784,0.240908 0.3137106,0.132645 0.5841331,0.242059 0.600939,0.243143 0.016806,0.0011 0.031174,-0.03011 0.03193,-0.06933 z M 13.60121,11.440243 c 0.195225,-0.07597 0.41523,-0.137427 0.4889,-0.136571 0.07367,8.55e-4 0.32645,0.08202 0.561733,0.180374 0.394686,0.164983 0.428792,0.172764 0.440772,0.100562 C 15.104942,11.510313 14.958985,9.9174395 14.915,9.6462335 14.896305,9.5309641 14.866839,9.5078774 14.620255,9.4152953 14.469569,9.3587191 14.227112,9.2674456 14.081461,9.2124648 L 13.81664,9.1124999 13.30737,9.301539 12.798099,9.4905781 12.78599,10.447275 c -0.0067,0.526183 -0.0011,1.033944 0.01246,1.128358 l 0.02457,0.171661 0.211621,-0.08446 c 0.116391,-0.04645 0.371349,-0.146619 0.566573,-0.222589 z m -4.0624406,-0.05635 c 0.3996232,-0.159595 0.4694536,-0.153206 1.0538236,0.09642 0.242683,0.103665 0.457777,0.188483 0.477986,0.188483 0.04308,0 0.04731,-0.6553 0.01004,-1.554066 L 11.054178,9.4773469 10.613043,9.3109878 10.171907,9.1446292 9.6516298,9.3326416 C 9.3654777,9.4360483 9.1120864,9.5441537 9.0885382,9.5728754 9.0649895,9.601597 9.0046084,10.043677 8.9543573,10.555276 8.9041061,11.066874 8.8543085,11.526561 8.8436957,11.576803 l -0.019296,0.09135 0.1942186,-0.07705 c 0.1068196,-0.04237 0.3408879,-0.135617 0.5201511,-0.20721 z M 16.937722,7.1668421 c 0.265022,-0.1008356 0.518434,-0.1833374 0.563137,-0.1833374 0.0447,0 0.223276,0.045093 0.396829,0.1002065 0.173554,0.055114 0.319097,0.096364 0.323428,0.091669 0.0043,-0.0047 -0.06722,-0.3861685 -0.159003,-0.8477171 l -0.16688,-0.8391793 -0.813966,-0.026267 c -0.447681,-0.014447 -0.822862,-0.01737 -0.833736,-0.0065 -0.03535,0.035355 0.148661,1.8944597 0.187516,1.8944597 0.01145,0 0.237652,-0.082502 0.502675,-0.1833373 z m -9.3574779,0.050927 c 0.010448,-0.050418 0.048073,-0.3850084 0.083611,-0.7435347 0.035538,-0.3585263 0.075588,-0.7393468 0.089,-0.8462678 L 7.7772401,5.4335646 6.9698763,5.4446296 6.162513,5.4556936 5.9878007,6.3112677 c -0.096092,0.4705658 -0.1752022,0.8599264 -0.175801,0.8652458 -5.989e-4,0.00532 0.1043304,-0.037586 0.2331758,-0.095346 0.3380838,-0.1515589 0.5247272,-0.1414449 1.0083552,0.054642 0.2240789,0.090853 0.4299842,0.1670861 0.4575671,0.1694076 0.027583,0.00232 0.058699,-0.03703 0.069146,-0.087448 z M 10.173029,7.0242464 c 0.09366,0 0.424578,0.1068397 0.822253,0.2654691 0.06667,0.026593 0.0713,-0.032716 0.0713,-0.9129762 V 5.435323 h -0.794461 c -0.7291907,0 -0.7945223,0.00586 -0.7951934,0.071298 -4.074e-4,0.039214 -0.036741,0.401305 -0.080752,0.804647 -0.044013,0.403342 -0.080351,0.791039 -0.080754,0.8615487 L 9.3146905,7.3010162 9.6869092,7.1626313 C 9.8916293,7.0865196 10.110383,7.0242464 10.173029,7.0242464 Z m 3.053207,0.1424625 c 0.555528,-0.2119978 0.608874,-0.214299 1.057127,-0.045601 0.211653,0.079654 0.388006,0.1408643 0.391895,0.136022 0.0039,-0.00484 -0.0319,-0.4121463 -0.07953,-0.9051199 l -0.0866,-0.8963158 -0.8657,-0.010996 -0.8657,-0.010996 v 0.9378676 c 0,0.5394177 0.01582,0.9378676 0.03725,0.9378676 0.02049,0 0.205553,-0.064228 0.411261,-0.1427288 z"
       id="path896"
       inkscape:connector-curvature="0" />
  </g>
  <g
     inkscape:groupmode="layer"
     id="layer3"
     inkscape:label="helper"
     style="display:none">
    <path
       style="fill:none;stroke:#ff0000;stroke-width:0.06862499;stroke-linecap:butt;stroke-linejoin:miter;stroke-miterlimit:4;stroke-dasharray:none;stroke-opacity:1"
       d="m 6.8564657,5.27434 -2.1318423,12.099664 0.057617,-0.02769"
       id="path3486"
       inkscape:connector-curvature="0" />
    <path
       style="fill:none;stroke:#fb0000;stroke-width:0.05;stroke-linecap:butt;stroke-linejoin:miter;stroke-miterlimit:4;stroke-dasharray:none;stroke-opacity:1"
       d="M 10.227081,5.2167411 9.6509076,17.374004 h 0.028809 l -0.028809,-0.02881"
       id="path3488"
       inkscape:connector-curvature="0" />
    <path
       style="fill:none;stroke:#fc0000;stroke-width:0.05;stroke-linecap:butt;stroke-linejoin:miter;stroke-miterlimit:4;stroke-dasharray:none;stroke-opacity:1"
       d="m 13.712931,5.3319758 0.864261,12.0996452 v 0"
       id="path3490"
       inkscape:connector-curvature="0" />
    <path
       style="fill:none;stroke:#fb0000;stroke-width:0.05;stroke-linecap:butt;stroke-linejoin:miter;stroke-miterlimit:4;stroke-dasharray:none;stroke-opacity:1"
       d="m 17.314016,5.3895932 2.131843,11.9844108 0.02881,0.02881"
       id="path3492"
       inkscape:connector-curvature="0" />
  </g>
</svg>
