<?xml version="1.0" encoding="UTF-8" standalone="no"?>
<svg
   xmlns:dc="http://purl.org/dc/elements/1.1/"
   xmlns:cc="http://creativecommons.org/ns#"
   xmlns:rdf="http://www.w3.org/1999/02/22-rdf-syntax-ns#"
   xmlns:svg="http://www.w3.org/2000/svg"
   xmlns="http://www.w3.org/2000/svg"
   xmlns:sodipodi="http://sodipodi.sourceforge.net/DTD/sodipodi-0.dtd"
   xmlns:inkscape="http://www.inkscape.org/namespaces/inkscape"
   version="1.1"
   id="1820402909"
   x="0px"
   y="0px"
   viewBox="0 0 25 25"
   xml:space="preserve"
   class="svg u_1820402909"
   data-icon-custom="true"
   data-icon-name="toolbox (1).svg"
   sodipodi:docname="tools-2.svg"
   width="25"
   height="25"
   inkscape:version="0.92.3 (2405546, 2018-03-11)"><metadata
   id="metadata5886"><rdf:RDF><cc:Work
       rdf:about=""><dc:format>image/svg+xml</dc:format><dc:type
         rdf:resource="http://purl.org/dc/dcmitype/StillImage" /><dc:title></dc:title></cc:Work></rdf:RDF></metadata><defs
   id="defs5884">  
  
  
  
</defs><sodipodi:namedview
   pagecolor="#ffffff"
   bordercolor="#666666"
   borderopacity="1"
   objecttolerance="10"
   gridtolerance="10"
   guidetolerance="10"
   inkscape:pageopacity="0"
   inkscape:pageshadow="2"
   inkscape:window-width="1918"
   inkscape:window-height="1042"
   id="namedview5882"
   showgrid="false"
   inkscape:zoom="34.711761"
   inkscape:cx="11.41951"
   inkscape:cy="13.136133"
   inkscape:window-x="1920"
   inkscape:window-y="37"
   inkscape:window-maximized="0"
   inkscape:current-layer="1820402909" /> <g
   id="1064740580"
   transform="matrix(0.0390625,0,0,0.0390625,2.5,2.5000046)"
   style="display:inline"> <g
   id="g6524"
   style="display:inline"><g
     id="g6511"><g
       id="g6632"
       style="stroke-width:2.55999994;stroke-miterlimit:4;stroke-dasharray:none"><g
         id="g6616"
         style="display:inline;stroke-width:2.55999994;stroke-miterlimit:4;stroke-dasharray:none"><g
           id="g6601"
           style="display:inline;stroke-width:2.55999994;stroke-miterlimit:4;stroke-dasharray:none"><g
             id="g6587"
             style="display:none;stroke-width:2.55999994;stroke-miterlimit:4;stroke-dasharray:none"><g
               id="g6574"
               style="stroke-width:2.55999994;stroke-miterlimit:4;stroke-dasharray:none"><g
                 id="g6562"
                 style="fill:#7c7c7c;fill-opacity:1;stroke-width:2.55999994;stroke-miterlimit:4;stroke-dasharray:none"
                 transform="matrix(1.2483959,0,0,1.2483959,-63.589349,-63.58932)"><g
                   id="g6551"
                   style="fill:#7c7c7c;fill-opacity:1;stroke-width:2.55999994;stroke-miterlimit:4;stroke-dasharray:none"><g
                     id="g6478"
                     style="fill:#7c7c7c;fill-opacity:1;stroke-width:2.55999994;stroke-miterlimit:4;stroke-dasharray:none"><g
                       id="g6469"
                       style="fill:#7c7c7c;fill-opacity:1;stroke-width:2.55999994;stroke-miterlimit:4;stroke-dasharray:none"><g
                         id="g6461"
                         style="fill:#7c7c7c;fill-opacity:1;stroke-width:2.55999994;stroke-miterlimit:4;stroke-dasharray:none"><g
                           id="g6454"
                           style="fill:#7c7c7c;fill-opacity:1;stroke-width:2.55999994;stroke-miterlimit:4;stroke-dasharray:none"><g
                             id="g6448"
                             style="fill:#7c7c7c;fill-opacity:1;stroke-width:2.55999994;stroke-miterlimit:4;stroke-dasharray:none"><g
                               id="g6443"
                               style="fill:#7c7c7c;fill-opacity:1;stroke-width:2.55999994;stroke-miterlimit:4;stroke-dasharray:none"><g
                                 id="g6439"
                                 style="fill:#7c7c7c;fill-opacity:1;stroke-width:2.55999994;stroke-miterlimit:4;stroke-dasharray:none"><path
                                   d="M 500.23,270.051 H 425.69 V 212.66 c 0,-6.501 -5.271,-11.77 -11.77,-11.77 h -48.1 l 27.688,-47.958 64.046,36.977 c 1.804,1.043 3.837,1.577 5.885,1.577 1.019,0 2.044,-0.133 3.046,-0.401 3.017,-0.809 5.586,-2.78 7.147,-5.484 l 20.598,-35.678 c 2.533,-4.388 1.975,-9.906 -1.389,-13.696 C 445.913,83.333 394.793,29.371 331.424,1.649 325.933,-0.753 319.511,1.355 316.514,6.548 l -38.253,66.256 c -3.251,5.63 -1.322,12.828 4.308,16.078 l 39.586,22.855 -69.394,120.189 -78.893,-116.953 -2.194,-16.818 c -0.237,-1.813 -0.892,-3.544 -1.914,-5.059 L 139.923,48.864 c -3.636,-5.39 -10.952,-6.81 -16.339,-3.176 l -53.66,36.193 c -2.588,1.746 -4.377,4.448 -4.973,7.512 -0.596,3.064 0.051,6.24 1.796,8.828 l 29.837,44.232 c 1.02,1.513 2.379,2.767 3.968,3.665 l 14.769,8.345 77.97,115.587 H 147.67 l -46.458,-95.485 c -2.845,-5.845 -9.89,-8.277 -15.733,-5.434 -5.845,2.845 -8.278,9.888 -5.434,15.733 l 41.447,85.186 H 91.712 L 73.156,227.845 c -2.618,-5.951 -9.566,-8.653 -15.512,-6.037 -5.951,2.616 -8.655,9.561 -6.038,15.512 l 14.39,32.732 H 11.77 c -6.5,0 -11.77,5.269 -11.77,11.77 v 64.736 c 0,6.501 5.271,11.77 11.77,11.77 h 20.598 v 141.241 c 0,6.501 5.271,11.77 11.77,11.77 h 423.724 c 6.499,0 11.77,-5.269 11.77,-11.77 V 358.328 h 20.598 c 6.5,0 11.77,-5.269 11.77,-11.77 v -64.736 c 0,-6.502 -5.271,-11.771 -11.77,-11.771 z M 402.15,224.43 v 45.621 H 325.891 L 352.229,224.43 Z M 304.533,74.381 331.515,27.647 c 52.385,25.827 96.917,71.78 138.08,117.868 l -10.464,18.122 z m -40.799,185.632 c 0.005,-0.008 0.007,-0.016 0.012,-0.025 l 78.799,-136.482 30.578,17.654 -74.412,128.89 H 257.937 Z M 133.285,139 c -1.02,-1.512 -2.379,-2.767 -3.968,-3.665 L 114.548,126.99 92.846,94.815 126.99,71.786 l 21.702,32.171 2.194,16.818 c 0.237,1.813 0.892,3.544 1.914,5.059 l 86.868,128.772 -8.917,15.444 h -9.063 z M 456.092,487.798 H 55.908 V 358.327 h 135.356 v 41.195 c 0,6.501 5.271,11.77 11.77,11.77 h 105.931 c 6.499,0 11.77,-5.269 11.77,-11.77 v -41.195 h 135.356 c 0,0 10e-4,31.64229 10e-4,129.471 z M 214.805,387.752 v -29.425 h 82.391 v 29.425 z M 488.46,334.787 H 23.54 v -41.195 h 464.92 z"
                                   id="1656924107"
                                   inkscape:connector-curvature="0"
                                   style="fill:#7c7c7c;fill-opacity:1;stroke-width:2.55999994;stroke-miterlimit:4;stroke-dasharray:none"
                                   sodipodi:nodetypes="scsscccsccccccccccccccccscccccccccccccccsssscsssscssssccccccccccccccccccccccccsccccccccssssccccccccccccc" /></g></g></g></g></g></g></g></g></g></g><g
               inkscape:groupmode="layer"
               id="layer4"
               inkscape:label="main"
               style="display:inline" /></g></g></g></g></g></g> 
</g> 
 <g
   id="1132553754"
   transform="translate(0,-487)" /> 
 <g
   id="1880598099"
   transform="translate(0,-487)" /> 
 <g
   id="1988094613"
   transform="translate(0,-487)" /> 
 <g
   id="1914315751"
   transform="translate(0,-487)" /> 
 <g
   id="1630138987"
   transform="translate(0,-487)" /> 
 <g
   id="1603307750"
   transform="translate(0,-487)" /> 
 <g
   id="1016117654"
   transform="translate(0,-487)" /> 
 <g
   id="1170772444"
   transform="translate(0,-487)" /> 
 <g
   id="1886740084"
   transform="translate(0,-487)" /> 
 <g
   id="1604956928"
   transform="translate(0,-487)" /> 
 <g
   id="1007233781"
   transform="translate(0,-487)" /> 
 <g
   id="1473687742"
   transform="translate(0,-487)" /> 
 <g
   id="1469275397"
   transform="translate(0,-487)" /> 
 <g
   id="1820851326"
   transform="translate(0,-487)" /> 
 <g
   id="1507908697"
   transform="translate(0,-487)" /> 
<g
   id="g6692"
   transform="matrix(0.96116071,0,0,0.96116071,0.49648405,0.5021704)"
   style="fill:none;fill-opacity:1;stroke:#7c7c7c;stroke-opacity:1"><path
     inkscape:connector-curvature="0"
     id="path6656"
     d="m 0.61610573,13.84981 v 2.969804 H 24.36102 v -3.027469 l -23.62908542,0.05767 z"
     style="fill:none;stroke:#7c7c7c;stroke-width:2;stroke-linecap:butt;stroke-linejoin:round;stroke-miterlimit:4;stroke-dasharray:none;stroke-opacity:1;fill-opacity:1" /><path
     inkscape:connector-curvature="0"
     id="path6658"
     d="m 9.9101857,17.135231 v 2.333503 l 5.1567533,0.02881 -0.02881,-2.333503 z"
     style="fill:none;stroke:#7c7c7c;stroke-width:2;stroke-linecap:butt;stroke-linejoin:round;stroke-miterlimit:4;stroke-dasharray:none;stroke-opacity:1;fill-opacity:1" /><path
     sodipodi:nodetypes="ccccc"
     inkscape:connector-curvature="0"
     id="path6662"
     d="m 2.1030336,17.313561 -0.057617,7.02499 20.8574834,0.02766 -0.144041,-7.163278 z"
     style="fill:none;stroke:#7c7c7c;stroke-width:2;stroke-linecap:butt;stroke-linejoin:round;stroke-miterlimit:4;stroke-dasharray:none;stroke-opacity:1;fill-opacity:1" /><g
     id="g6680"
     style="fill:none;fill-opacity:1;stroke:#7c7c7c;stroke-opacity:1"><path
       style="fill:none;stroke:#7c7c7c;stroke-width:2;stroke-linecap:round;stroke-linejoin:miter;stroke-miterlimit:4;stroke-dasharray:none;stroke-opacity:1;fill-opacity:1"
       d="m 2.9961026,11.373495 1.0947299,2.419929 v 0.02881 0 l -0.028809,-0.08643"
       id="path6664"
       inkscape:connector-curvature="0" /><path
       style="fill:none;stroke:#7c7c7c;stroke-width:1.96671057;stroke-linecap:round;stroke-linejoin:miter;stroke-miterlimit:4;stroke-dasharray:none;stroke-opacity:1;fill-opacity:1"
       d="M 4.3909803,8.7638547 6.6856429,13.579813"
       id="path6666"
       inkscape:connector-curvature="0" /></g><path
     sodipodi:nodetypes="cccccccccc"
     inkscape:connector-curvature="0"
     id="path6668"
     d="M 11.379428,13.793424 12.387732,12.180138 7.9511955,5.8422283 7.7783434,4.7763071 6.3667181,2.7885083 3.8315543,4.5458377 5.2719883,6.6488713 6.2514834,7.2538536 10.457551,13.620572 Z"
     style="fill:none;stroke:#7c7c7c;stroke-width:2;stroke-linecap:butt;stroke-linejoin:round;stroke-miterlimit:4;stroke-dasharray:none;stroke-opacity:1;fill-opacity:1" /><path
     inkscape:connector-curvature="0"
     id="path6670"
     d="m 16.401391,5.3404599 2.547173,1.5000015 -4.075475,6.8490636 -3.509439,0.113208 z"
     style="fill:none;stroke:#7c7c7c;stroke-width:2;stroke-linecap:butt;stroke-linejoin:miter;stroke-miterlimit:4;stroke-dasharray:none;stroke-opacity:1;fill-opacity:1" /><path
     sodipodi:nodetypes="cccccc"
     inkscape:connector-curvature="0"
     id="path6672"
     d="M 14.116253,3.883238 22.614814,8.7807136 23.651926,6.9945754 18.466364,1.9242479 15.960008,0.59904863 Z"
     style="fill:none;stroke:#7c7c7c;stroke-width:2;stroke-linecap:butt;stroke-linejoin:round;stroke-miterlimit:4;stroke-dasharray:none;stroke-opacity:1;fill-opacity:1" /><path
     inkscape:connector-curvature="0"
     id="path6674"
     d="m 17.141164,10.336382 3.082529,0.02881 -0.02881,3.255381"
     style="fill:none;stroke:#7c7c7c;stroke-width:2;stroke-linecap:butt;stroke-linejoin:round;stroke-miterlimit:4;stroke-dasharray:none;stroke-opacity:1;fill-opacity:1" /></g><path
   style="fill:none;stroke:#000000;stroke-width:1px;stroke-linecap:butt;stroke-linejoin:miter;stroke-opacity:1"
   d="M 11.35062,10.912556 Z"
   id="path6676"
   inkscape:connector-curvature="0" /></svg>