<?xml version="1.0" encoding="UTF-8" standalone="no"?>
<svg
   xmlns:dc="http://purl.org/dc/elements/1.1/"
   xmlns:cc="http://creativecommons.org/ns#"
   xmlns:rdf="http://www.w3.org/1999/02/22-rdf-syntax-ns#"
   xmlns:svg="http://www.w3.org/2000/svg"
   xmlns="http://www.w3.org/2000/svg"
   xmlns:sodipodi="http://sodipodi.sourceforge.net/DTD/sodipodi-0.dtd"
   xmlns:inkscape="http://www.inkscape.org/namespaces/inkscape"
   width="24"
   height="24"
   viewBox="0 0 24 24"
   version="1.1"
   id="svg1350"
   sodipodi:docname="worker.svg"
   inkscape:version="0.92.3 (2405546, 2018-03-11)">
  <metadata
     id="metadata1356">
    <rdf:RDF>
      <cc:Work
         rdf:about="">
        <dc:format>image/svg+xml</dc:format>
        <dc:type
           rdf:resource="http://purl.org/dc/dcmitype/StillImage" />
        <dc:title></dc:title>
      </cc:Work>
    </rdf:RDF>
  </metadata>
  <defs
     id="defs1354" />
  <sodipodi:namedview
     pagecolor="#ffffff"
     bordercolor="#666666"
     borderopacity="1"
     objecttolerance="10"
     gridtolerance="10"
     guidetolerance="10"
     inkscape:pageopacity="0"
     inkscape:pageshadow="2"
     inkscape:window-width="1918"
     inkscape:window-height="1059"
     id="namedview1352"
     showgrid="false"
     inkscape:zoom="35.375"
     inkscape:cx="10.54417"
     inkscape:cy="12"
     inkscape:window-x="1920"
     inkscape:window-y="19"
     inkscape:window-maximized="0"
     inkscape:current-layer="svg1350" />
  <path
     d="m 3,6 h 18 z m 7,-4 v 2 m 4,-2 v 2 m 2,8 c 2.373672,1.182645 4,3.650626 4,7 v 4 H 4 v -4 c 0,-3.354274 1.6310898,-5.824574 4,-7 m 4,4.5 V 23 m 0,-10 c 3.313709,0 6,-2.686291 6,-6 C 18,3.6862915 15.313709,1 12,1 8.6862915,1 6,3.6862915 6,7 c 0,3.313709 2.6862915,6 6,6 z M 8,12 c 0,2.209139 1.790861,4 4,4 v 0 c 2.209139,0 4,-1.790861 4,-4"
     id="path1348"
     inkscape:connector-curvature="0"
     style="fill:none;stroke:#d9d9d9;stroke-width:2" />
</svg>
